<?xml version="1.0" encoding="utf-8"?><!DOCTYPE svg PUBLIC "-//W3C//DTD SVG 1.1//EN" "http://www.w3.org/Graphics/SVG/1.1/DTD/svg11.dtd"><svg version="1.1" id="baby" xmlns="http://www.w3.org/2000/svg" xmlns:xlink="http://www.w3.org/1999/xlink" x="0px" y="0px" width="323px" height="93px" viewBox="0 0 323 93" enable-background="new 0 0 323 93" xml:space="preserve"><path fill="#414143" d="M169.014,46.021c1.405,0.438,3.57,0.171,4.221-1.347c0.642-1.497,0.583-3.776-1.072-4.594c-1.578-0.78-3.521-0.047-4.583,1.247C166.259,42.939,167.005,45.355,169.014,46.021"/><path fill="#414143" d="M307.166,63.356c-0.385-0.324-0.89-0.444-1.495-0.404c-1.396,0.293-2.703,0.064-4.035-0.464c1.999-1.549,3.611-3.784,4.735-6.03c0.99-1.979,1.999-4.754,0.635-6.807c-1.255-1.89-4.156-2.415-6.244-2.011c-2.602,0.503-4.78,2.473-6.27,4.576c-2.07,3.185-2.544,7.04-0.263,10.312c-0.75,0.455-1.61,0.503-2.463,0.468c-0.38-0.046-0.775-0.061-1.16-0.115c0.963-0.983,1.082-3.15,0.855-4.411c-0.391-2.172-1.979-3.884-3.375-5.493c-0.587-0.677-1.187-1.344-1.827-1.97c-0.681-0.666-0.106-1.97-0.184-2.928c-0.244-1.796-1.92-2.75-3.618-2.835c-1.943-0.098-3.157,1.675-2.957,3.512c0.131,1.208,2.109,2.235,1.752,3.25c-0.491,1.395-0.998,2.784-1.5,4.174c-0.667,1.849-1.359,3.728-3.087,4.846c0.511-3.919-2.166-7.235-4.998-9.595c-0.213-0.084,0.034-2.618-0.196-3.19c-0.501-1.245-1.998-2.216-3.34-2.112c-1.378,0.107-2.505,1.177-2.819,2.497c-0.159,0.634-0.128,1.29,0.1,1.902c0.139,0.373,1.092,1.492,1.037,1.757c-0.541,2.629-1.213,5.161-2.6,7.484c-1.361,2.28-3.761,5.413-6.448,2.819c2.312-1.899,4.296-4.149,5.065-7.118c0.825-3.186,0.217-6.721-3.583-7.153c-3.334-0.379-7.061,1.533-8.967,4.234c-2.015,2.856-1.861,7.12-0.071,10.042c-1.361,0.67-4.523,1.218-5.297-0.646c-0.851-2.048,0.729-4.947,1.072-6.972c0.319-1.882,0.569-4.618-1.033-6.034c-1.765-1.56-4.743-0.435-6.449,0.628c2.473-4.608,5.027-10.305,3.388-15.603c-0.277-0.896-0.687-1.965-1.539-2.471c-1.089-0.645-2.738-0.414-3.854,0.026c-2.018,0.794-3.655,3.394-4.405,5.322c-0.896,2.304-1.027,4.882-0.982,7.326c0.029,1.586,0.173,3.167,0.309,4.747c0.077,0.905,0.159,1.81,0.242,2.715c0.079,0.862,0.342,1.892,0.109,2.729c-1.163,4.187-3.72,8.636-8.714,7.906c-2.795-0.292-4.674-2.926-4.417-5.787c0.129-1.429,0.769-3.033,1.986-3.88c0.693-0.482,3.323-1.019,2.961,0.551c-0.144,0.623-0.71,1.106-0.662,1.758c0.049,0.678,0.707,1.162,1.245,1.473c0.942,0.546,2.688,0.867,3.482-0.173c0.675-0.882,0.715-2.422,0.832-3.468c0.132-1.19-0.031-2.468-0.898-3.363c-1.851-1.91-5.552-2.11-7.91-1.266c-2.671,0.956-4.709,3.468-5.855,6c-0.628,1.388-0.914,2.906-0.888,4.427c0.014,0.817,0.139,1.633,0.409,2.407c0.128,0.364,0.288,0.718,0.48,1.053c-0.271,0.278-0.579,0.529-0.931,0.696c-0.816,0.388-2.329,0.332-2.676-0.66c-0.401-1.152-0.173-2.573-0.013-3.746c0.271-1.289,0.544-2.577,0.815-3.866c0.213-1.01,0.459-2.04,0.303-3.08c-0.216-1.435-1.705-1.726-2.969-1.756c-3.001-0.072-3.199,2.429-3.465,4.855c-0.257,2.344,0.121,5.193-1.538,7.14c-1.492,1.75-2.877-0.09-2.974-1.696c-0.16-2.67,0.695-5.286,1.077-7.902c0.193-1.329,0.688-2.748,0.4-4.095c-0.278-1.296-1.537-1.956-2.75-2.216c-3.168-0.681-3.37,3.331-3.592,5.414c-0.144,2.171-0.378,4.342-0.347,6.521c0.02,1.382,0.174,2.777,0.503,4.122c0.089,0.364,0.341,0.587-0.076,0.737c-0.388,0.138-0.781,0.263-1.182,0.359c-0.507,0.122-1.099,0.245-1.615,0.097c-1.594-0.458-1.23-3.603-1.179-4.896c0.096-2.422,0.412-4.847,0.675-7.255c0.3-2.75,0.573-5.514,1.107-8.231c0.391-1.984,1.734-4.082,0.05-5.816c-0.844-0.868-2.531-1.523-3.659-0.807c-0.966,0.613-1.132,1.954-1.325,2.986c-0.607,3.231-1.023,6.494-1.335,9.767c-5.74-1.945-11.27,3.893-11.969,9.164c-0.197,1.489-0.018,3.023,0.492,4.435c0.484,1.337-2.404,0.862-3.031,0.483c-1.061-0.642-1.059-2.086-0.921-3.167c0.232-1.664,0.51-3.323,0.867-4.965c0.249-1.056,0.729-2.235,0.603-3.332c-0.241-2.097-4.396-2.977-5.433-1.054c-0.472,0.876-0.378,2.082-0.433,3.038c-0.067,1.158-0.1,2.318-0.111,3.478c-0.007,0.721-0.007,1.443,0.001,2.165c0.006,0.614,0.232,1.544-0.114,2.06c-0.672,1.004-1.75,1.476-2.945,1.415c-1.804-0.227-1.515-2.471-1.253-3.727c0.464-2.23,1.213-4.35,1.164-6.662c-0.033-1.578-0.459-3.474-2.121-4.077c-2.047-0.743-4.44,0.425-6.045,1.637c1.449-2.941,2.725-6.092,3.113-9.373c0.27-2.279,0.16-5.67-1.601-7.389c-1.004-0.979-2.73-0.716-3.932-0.335c-1.232,0.403-2.149,1.58-2.862,2.597c-1.532,2.184-2.203,4.461-2.39,7.11c-0.186,2.626,0.029,5.256,0.267,7.872c0.123,1.345,0.251,2.689,0.379,4.033c0.152,1.608-1.061,3.153-2.064,4.375c-1.722,2.095-4.467,4.285-7.349,3.295c-3.285-1.129-4.033-5.026-2.495-7.816c0.5-0.909,3.091-3.895,4.246-2.288c0.993,1.381-2.11,3.729-0.444,4.594c0.85,0.406,1.908,0.634,2.764,0.12c1.731-0.803,2.428-3.435,2.286-5.19c-0.187-2.3-2.084-3.581-4.227-3.819c-4.86-0.541-9.183,3.249-10.421,7.818c-0.329,1.213-0.542,2.442-0.476,3.703c0.031,0.598,0.133,1.189,0.282,1.769c0.069,0.271,0.154,0.537,0.255,0.797c0.216,0.552-0.031,0.534-0.534,0.755c-1.69,0.738-4.184,0.485-4.07-1.763c0.117-2.293,1.775-4.377,1.069-6.701c-0.725-2.389-3.177-3.911-5.313-4.895c-0.892-0.379-1.032-0.291-1.168-1.282c-0.131-0.959-0.413-2.042-1.187-2.693c-0.764-0.643-2.112-1.068-3.092-0.767c-1.165,0.359-1.801,2.004-1.922,3.119c-0.122,1.118,0.357,2.129,1.154,2.895c0.372,0.351,1.081,0.64,1.06,1.159c-0.029,0.739-0.096,1.476-0.174,2.21c-0.243,2.278-0.383,5.5-1.877,7.358c-1.056,1.313-3.701,1.624-3.792-0.479c-0.102-2.353,0.669-4.855,1.292-7.102c0.662-1.572,1.953-4.217,0.145-5.541c-0.879-0.644-2.18-0.937-3.255-0.961c-1.179-0.027-1.521,0.818-1.611,1.883c-2.676-1.843-6.511-1.526-9.124,0.232c-2.965,1.996-5.102,5.404-5.385,8.982c-0.272,3.45,0.835,7.696,4.261,9.247c3.318,1.503,7.295-0.2,9.329-2.954c2.146,2.953,7.314,3.433,10.077,1.13c3.461-2.886,3.683-8.125,4.04-12.241c1.315,0.699,2.439,1.588,2.18,3.236c-0.253,1.61-1.238,3.012-1.625,4.58c-0.931,3.772,3.71,5.883,6.697,5.82c1.791-0.038,3.519-0.542,4.895-1.723c0.381-0.327,0.378-0.612,0.868-0.373c0.448,0.219,0.917,0.39,1.396,0.525c1.073,0.301,2.202,0.427,3.313,0.483c3.378,0.173,7.351-0.679,9.607-3.423c-0.379,1.583-1.012,3.889,0.251,5.247c1.158,1.245,4.074,1.671,4.484-0.468c0.277-1.679,0.532-3.363,0.804-5.043c0.292-1.8,0.721-3.624,1.333-5.342c0.396-1.112,0.92-2.421,1.913-3.143c0.839-0.609,2.416-0.885,2.071,0.584c-0.379,1.615-0.931,3.153-1.071,4.817c-0.137,1.623-0.327,3.504,0.478,4.993c0.786,1.455,2.43,2.234,4.016,2.427l0.181,0.04c1.923,0.064,4.138,0.1,5.59-1.386c0.969,1.427,2.537,2.186,4.234,2.303c0.991,0.069,2.01-0.028,2.959-0.324c0.451-0.14,0.886-0.327,1.295-0.56c0.5-0.285,0.682-0.739,1.155-0.316c3.177,2.646,7.808,2.25,9.938-1.427c0.952,1.354,2.893,2.022,4.484,2.058c0.915,0.021,1.811-0.153,2.688-0.399c0.624-0.176,1.984-1.04,2.426-0.661c2.384,2.048,7.246,0.911,8.854-1.648c0.108,1.964,2.332,2.678,3.965,2.77c2.121,0.12,4.537-0.313,5.684-2.314c2.077,1.28,4.47,1.967,6.899,2.104c2.884,0.144,5.441-1.106,7.567-2.974c-0.308,1.53-0.671,3.164,0.754,4.196c1.03,0.747,2.929,1.549,3.342-0.232c0.338-1.726,0.658-3.455,1.034-5.173c0.563-2.582,1.029-6.714,3.401-8.375c0.479-0.336,1.154-0.524,1.735-0.483c0.759,0.053,0.413,0.998,0.287,1.461c-0.463,1.439-0.865,2.891-1.014,4.399c-0.163,1.643-0.395,3.508,0.436,5.019c0.807,1.466,2.506,2.235,4.11,2.406c0.114,0.031,0.245,0.061,0.363,0.061c1.866,0.112,3.73-0.071,5.524-0.609c0.418-0.125,0.831-0.269,1.238-0.428c0.772-0.303,0.763-0.347,1.438,0.119c0.904,0.625,1.906,1.115,2.931,1.508c1.854,0.713,3.926,1.102,5.839,0.39c1.686-0.627,3.147-2.189,4.19-3.61c0.127-0.171,0.28-0.387,0.411-0.578c1.338-2.762,2.505-5.378,3.168-8.415c0.873,1.34,1.985,2.745,2.239,4.366c0.108,0.693,0.015,1.405-0.355,2.009c-0.249,0.404-1.759-0.121-2.361-0.004c-1.581,0.307-2.308,2.174-1.579,3.526c0.64,1.185,1.88,1.494,3.15,1.476c0.917-0.014,1.83-0.171,2.721-0.377c0.793-0.407,1.913-0.276,2.807-0.44c1.493-0.274,2.886-0.822,4.002-1.872c2.281-2.146,3.396-5.452,4.471-8.32c1.43,1.987,2.122,3.978,0.949,6.314c-1.032-0.354-2.914-0.152-3.373,1.044c-0.448,1.167,0.104,3.321,1.328,3.837c1.146,0.482,2.782,0.197,3.949-0.094c1.309-0.326,2.924,0.415,4.331,0.479c1.647-0.169,3.334-0.561,4.837-1.386c0.428-0.234,0.347-0.362,0.801-0.06c0.435,0.292,0.891,0.553,1.363,0.78c0.818,0.394,1.687,0.68,2.578,0.854c1.787,0.35,3.61,0.274,5.365-0.192c0.73-0.195,1.164-0.431,1.233-1.24C308.016,65.007,307.814,63.943,307.166,63.356 M106.516,53.046c-0.602,2.508-1.218,5.226-2.783,7.337c-0.664,0.896-1.729,2.062-2.883,2.246c-1.182,0.176-2.034-0.632-2.301-1.716c-0.56-2.275,0.308-5.541,1.767-7.338c0.652-0.803,1.534-1.371,2.544-1.604c0.729-0.168,1.502-0.18,2.24-0.066c0.403,0.063,0.799,0.167,1.18,0.312C106.834,52.429,106.626,52.548,106.516,53.046 M151.923,47.697c-0.105-2.075,0.145-3.978,0.509-6.014c0.188-1.058,0.323-2.376,1.072-3.218c0.237-0.267,0.916-0.677,1.235-0.301c0.51,0.599-0.087,2.123-0.264,2.734C153.803,43.221,152.862,45.472,151.923,47.697 M186.385,53.869c-0.192,2.156-0.309,4.485-1.021,6.55c-0.567,1.641-3.13,4.002-4.503,1.721c-1.197-1.99-0.281-4.449,0.584-6.372c0.927-2.063,2.735-3.233,5.005-3.148C186.425,53.036,186.403,53.452,186.385,53.869 M235.001,46.688c-0.078-2.205,0.195-4.271,0.634-6.427c0.198-0.975,0.37-2.278,1.202-2.953c0.262-0.212,0.937-0.487,1.181-0.105c0.444,0.694-0.153,2.124-0.363,2.796C236.942,42.287,235.973,44.5,235.001,46.688 M255.382,59.521l-0.75,0.554c-2.223-1.729-1.043-6.167,1.195-7.353c1.621-0.68,2.466,1.146,2.412,2.499C258.168,57,256.75,58.534,255.382,59.521 M298.648,60.188c-0.908-1.408-0.906-3.291-0.457-4.855c0.437-1.521,1.744-3.536,3.561-3.421c1.87,0.118,0.993,2.712,0.506,3.679C301.38,57.333,300.147,58.937,298.648,60.188"/><path fill="#484648" d="M64.788,35.062c-1.323-1.107-2.876-1.661-4.647-1.661c-1.824,0-3.262,0.554-4.316,1.607c0,0.054,0,0.054-0.107,0.054c-1,1.162-1.555,2.655-1.663,4.539c-0.168,1.882,0.385,3.486,1.493,4.867c0.169,0.165,0.385,0.334,0.5,0.442c0.054,0.112,0.054,0.112,0.109,0.112c1.053,0.943,2.438,1.273,4.093,1.05c1.938-0.331,3.654-1.216,5.093-2.82c1.384-1.549,1.992-2.988,1.884-4.204c-0.168-1.219-0.884-2.492-2.215-3.708C64.957,35.228,64.842,35.173,64.788,35.062z"/><path fill="#484648" d="M48.908,47.956c0,0.385,0.054,0.662,0.165,0.994c1.881-0.885,3.543-0.885,4.874,0c0.108-0.332,0.216-0.608,0.216-0.994c0-0.722-0.276-1.33-0.77-1.827c-0.5-0.5-1.165-0.776-1.884-0.776c-0.773,0-1.328,0.276-1.827,0.776C49.185,46.625,48.908,47.233,48.908,47.956z"/><path fill="#484648" d="M46.584,35.45c0-0.058-0.054-0.111-0.111-0.111c-0.998-1.162-2.436-1.716-4.205-1.716c-1.827,0-3.374,0.608-4.705,1.936c-0.608,0.611-1.104,1.274-1.381,1.827c-0.389,0.608-0.608,1.273-0.666,1.881c-0.166,1.22,0.5,2.601,1.827,4.204c1.327,1.551,2.878,2.494,4.813,2.771c1.604,0.277,2.989-0.112,4.04-1.107c0.111-0.112,0.277-0.278,0.388-0.389c0,0,0-0.055,0.054-0.112c1.107-1.327,1.604-2.931,1.439-4.866C47.969,37.939,47.524,36.555,46.584,35.45z"/><path fill="#FFFFFF" d="M70.874,56.531c-0.108-0.108-0.108-0.169-0.216-0.223v-0.054c-0.169-0.169-0.338-0.331-0.5-0.554l-2.992,2.878c-0.108,0.168-0.162,0.168-0.331,0.168c-0.109,0-0.278-0.053-0.332-0.168c-0.108-0.054-0.162-0.162-0.162-0.331c0-0.108,0.054-0.277,0.162-0.332l2.932-2.877l-0.662-0.555c-1.054,0.939-1.992,1.939-2.986,3.101c-0.114,0.054-0.222,0.108-0.392,0.108c-0.108,0-0.215-0.054-0.277-0.108c-0.162-0.114-0.215-0.223-0.215-0.331c0-0.168,0.054-0.223,0.107-0.338c0.939-1.1,1.878-2.046,2.877-2.931l-0.608-0.332c-1.216,0.885-2.269,1.77-3.154,2.823c-0.115,0.054-0.223,0.108-0.385,0.108c-0.115,0-0.224-0.054-0.337-0.108c-0.108-0.115-0.163-0.223-0.163-0.331c0-0.168,0.055-0.277,0.163-0.392c0.722-0.831,1.661-1.654,2.66-2.431c-0.236,0.087-0.479,0.161-0.722,0.223c-0.439,0.384-0.939,0.769-1.385,1.162c-1.202,1.228-2.426,2.444-3.594,3.708c-0.115,0.216-0.223,0.384-0.391,0.608c-0.454,0.872-0.96,1.715-1.379,2.6c-0.945,1.891-3.242,2.162-4.039,4.04l0,0c-0.5,0.885-1.162,1.716-2.05,2.431c0.496,0.169,0.997,0.332,1.442,0.446c1.102,0.162,2.155,0.439,3.263,0.716l0,0c0.939,0.277,1.824,0.608,2.709,0.885c0.168-0.162,0.276-0.332,0.445-0.493c0.331-0.338,0.607-0.554,1.047-0.669h-0.054c0.115,0,0.223-0.054,0.277-0.054c0.116-0.054,0.169-0.054,0.169-0.054c0.109,0,0.109,0,0.109,0c0.054-0.054,0.054-0.054,0.114-0.054c0.938-0.277,1.654-0.885,1.985-1.831c0.115-0.215,0.169-0.493,0.277-0.716l0,0c0.277-0.938,0.831-1.77,1.5-2.546c0.108-0.055,0.163-0.169,0.217-0.223v-0.054l1.438-1.439c-1.1-1.662-2.763-3.046-4.87-4.262c-0.107-0.055-0.217-0.109-0.217-0.277c-0.053-0.109-0.053-0.277,0-0.385c0.109-0.108,0.217-0.223,0.332-0.277c0.161,0,0.223,0,0.331,0.108c2.269,1.223,3.985,2.662,5.146,4.377l3.039-2.715c0-0.054,0-0.108,0.062-0.162l-0.062,0.054c0.169-0.393,0.223-0.778,0.116-1.108l-2.771,2.601c-0.107,0.108-0.161,0.168-0.33,0.168c-0.109-0.06-0.277-0.114-0.332-0.223c-0.108-0.054-0.169-0.222-0.169-0.331c0-0.169,0.115-0.277,0.169-0.338L70.874,56.531"/><path fill="#FFFFFF" d="M51.121,69.033c-0.22-0.108-0.442-0.276-0.662-0.384c-0.942-0.716-1.716-1.547-2.27-2.492l0,0c-0.22-0.493-0.554-0.886-0.997-1.216c-0.112-0.055-0.331-0.108-0.442-0.223c-0.055-0.054-0.166-0.108-0.277-0.162H46.42c-1.051-0.447-1.881-1.162-2.49-2.216c-0.112-0.278-0.223-0.5-0.388-0.716c-0.5-0.668-0.996-1.439-1.55-2.107c-0.112-0.277-0.277-0.493-0.442-0.771c-0.774-0.999-1.604-1.884-2.489-2.6c-0.334-0.223-0.665-0.446-1.053-0.723c-0.551-0.385-1.162-0.777-1.824-1.108c0-0.054-0.112-0.054-0.112-0.054c0.996,0.723,1.936,1.493,2.767,2.378c0.111,0.114,0.111,0.168,0.111,0.337c0,0.108,0,0.216-0.111,0.384c-0.112,0.055-0.277,0.109-0.386,0.109c-0.169,0-0.223-0.054-0.334-0.163c-0.938-1-2.046-1.885-3.32-2.662l-0.608,0.338c1.05,0.832,2.101,1.77,3.043,2.817c0.054,0.114,0.111,0.223,0.111,0.337c0,0.108-0.057,0.277-0.165,0.332c-0.058,0.108-0.166,0.162-0.334,0.108c-0.109,0-0.277-0.054-0.386-0.108c-0.996-1.108-2.104-2.108-3.154-2.932l-0.665,0.547l3.154,2.77c0.054,0.108,0.112,0.223,0.112,0.384c0,0.115,0,0.224-0.112,0.338c-0.054,0.054-0.219,0.108-0.33,0.108c-0.166,0.054-0.277,0-0.389-0.108l-3.154-2.77c-0.2,0.277-0.402,0.554-0.608,0.831l3.043,2.601c0.166,0.107,0.166,0.223,0.166,0.385c0.057,0.115,0,0.223-0.112,0.331c-0.054,0.06-0.166,0.115-0.274,0.169c-0.168,0-0.276-0.054-0.388-0.109l-2.934-2.492c-0.055,0.331,0,0.715,0.111,1.054c0,0,0.057,0.054,0.111,0.108l3.154,2.654c1.108-1.77,2.823-3.316,5.036-4.648c0.111-0.054,0.22-0.054,0.388,0c0.108,0,0.166,0.055,0.273,0.223c0.058,0.054,0.058,0.223,0.058,0.332c0,0.169-0.112,0.223-0.223,0.331c-2.158,1.276-3.705,2.715-4.759,4.424c0.287,0.277,1.496,1.088,1.496,1.439c0.108,0.061,0.166,0.115,0.22,0.169v0.054c0.777,0.723,1.328,1.553,1.662,2.493l0,0c0.054,0.223,0.165,0.438,0.219,0.662c0.443,0.939,1.162,1.553,2.215,1.831l0,0c0.112,0,0.22,0,0.332,0c0.452,0.216,0.895,0.459,1.328,0.716c0.388,0.331,0.665,0.776,0.942,1.216c0.053,0.168,0.108,0.391,0.166,0.554l0,0c1.658-0.332,3.708-0.386,6.086-0.164c0.608,0.054,1.161,0.164,1.661,0.493c0.274,0.169,0.551,0.393,0.774,0.669c0.054,0.054,0.111,0.108,0.165,0.216c0.827,1.162,1.55,2.324,2.05,3.6c0.216,0.554,0.439,1.108,0.553,1.662c0.994,0.331,1.933,0.554,2.878,0.771h0.055c1.107,0.332,2.27,0.554,3.431,0.776c1.161,0.223,2.377,0.446,3.647,0.608c1.108,0.169,2.216,0.169,3.323,0.115c1.053-0.169,1.878-0.615,2.378-1.554l0,0c0.223-0.385,0.385-0.939,0.385-1.438c0-0.831-0.271-1.493-0.939-2.047c-0.885-0.777-1.824-1.331-2.877-1.662c-1.161-0.439-2.324-0.831-3.432-1.215h-0.054c-1.107-0.386-2.27-0.777-3.377-1.162c0,0,0,0-0.054,0c-1.141-0.386-2.283-0.75-3.431-1.107c-1.046-0.277-2.046-0.554-3.04-0.663v-0.053C52.785,69.81,51.897,69.533,51.121,69.033"/><path fill="#FFFFFF" d="M51.397,73.903c-0.165-0.277-0.442-0.493-0.719-0.662c-0.386-0.169-0.773-0.276-1.162-0.276c-1.836-0.203-3.769-0.23-5.586,0.168c0.442,1.162,0.993,2.047,1.604,2.655c0.72,0.662,1.546,1.107,2.655,1.439h-0.054c0.219,0.054,0.385,0.054,0.608,0.107c0.97,0.337,2.026,0.392,2.989,0.723h0.054c0.608,0.107,1.269,0.277,1.938,0.331c-0.115-0.385-0.223-0.777-0.392-1.161c-0.493-1.162-1.104-2.216-1.936-3.262V73.903"/><path fill="#FFFFFF" d="M36.237,74.294c-1.05,0.439-1.993,1.047-2.766,1.824c-0.608,0.608-0.885,1.27-0.885,2.101c0.054,0.554,0.166,1,0.443,1.438c0.607,0.886,1.381,1.332,2.435,1.439c1.104,0.054,2.212,0,3.262-0.216c2.348-0.433,4.678-1.006,6.974-1.662l0,0c0.608-0.222,1.273-0.392,1.992-0.608c-1.272-0.392-2.38-1-3.211-1.776c-0.827-0.716-1.547-1.986-2.212-3.763v0.061c-0.111-0.222-0.111-0.446-0.166-0.607c-0.058-0.169-0.111-0.277-0.166-0.392C40.022,72.815,38.151,73.62,36.237,74.294"/><path fill="#484648" d="M70.489,21.174c-0.689-0.55-1.526-0.982-2.324-1.452v-0.21c-0.296-0.168-0.709-0.273-1.026-0.432c-0.453-0.226-0.966-0.402-1.453-0.604c-0.763-0.317-1.432-0.689-2.282-0.956c-0.108-0.442-0.277-0.996-0.385-1.77c-0.331-1.881-1.054-3.543-2.216-5.09c-1.101-1.496-2.377-2.823-3.924-3.765c-1.493-0.993-3.154-1.547-4.981-1.712c-0.277,0-0.555,0-0.831,0c-2.547-0.058-4.812,0.662-6.805,2.212c-0.997,0.719-1.662,1.658-2.104,2.877c-0.443,1.273-0.331,2.546,0.277,3.874c0.277,0.662,0.83,1.162,1.55,1.492c0,0.332-0.331,0.667-0.997,0.886c-0.553,0.167-1.162,0.388-1.77,0.553c-0.168,0-0.443,0.111-0.608,0.111c-2.604,0.554-4.982,1.327-7.193,2.377c-0.388,0.112-0.723,0.277-1.108,0.5v0.163c-6.596,3.319-9.741,8.632-9.129,16.173c0.166,1.82,0.385,3.478,0.716,5.021c0.169,0.72,0.5,1.772,1.054,3.212c0.554,1.381,1.551,2.874,3.043,4.371c0.884,0.884,1.827,1.714,2.82,2.269c-0.055,0-0.055,0-0.055,0c0,0.054-0.053,0.054-0.053,0.054c-0.058,0.054-0.058,0.054-0.058,0.054l-1.493,1.273l0.054-0.054c-0.108,0.054-0.219,0.166-0.332,0.331c-0.054,0-0.165,0.058-0.165,0.111c-0.111,0.108-0.111,0.169-0.166,0.169c0,0.054-0.112,0.109-0.112,0.217v-0.107c0,0.053-0.054,0.107-0.111,0.161c0,0,0,0.062-0.054,0.062c0,0.054,0,0.054,0,0.054c-0.223,0.162-0.389,0.439-0.5,0.607c-0.166,0.108-0.278,0.223-0.278,0.331c-0.165,0.17-0.33,0.385-0.442,0.608c-0.054,0.054-0.054,0.054-0.107,0.115c0,0.053-0.058,0.108-0.058,0.162l-0.054,0.108c-0.054,0-0.054,0-0.054,0.061c-1.219,2.046-1.273,4.039-0.276,6.086c0.053,0.107,0.107,0.161,0.165,0.331c0.055,0,0.112,0.053,0.112,0.107v0.061c0.273,0.438,0.55,0.824,0.993,1.162l5.093,4.424c0,0.109,0.107,0.109,0.166,0.224l0.33,0.331c0.058,0,0.058,0,0.058,0.054c0.107,0.054,0.165,0.108,0.277,0.168c0,0.108,0,0.162,0,0.331c0.054,0.054,0.054,0.054,0.108,0.108v0.054c0.058,0.062,0.058,0.169,0.058,0.224v0.054c0.054,0.168,0.108,0.338,0.22,0.499c0,0.055,0,0.055,0.053,0.109c-1.547,0.668-2.874,1.553-4.036,2.661c-1.662,1.601-2.493,3.54-2.381,5.809c0,0.054,0,0.054,0,0.108c0.054,1.384,0.443,2.654,1.219,3.762v0.054c0,0,0,0,0.054,0.061c1.384,2.154,3.432,3.432,6.031,3.593c0.054,0,0.054,0,0.112,0c1.493,0.115,2.931,0,4.369-0.224c1.328-0.216,2.655-0.493,3.875-0.769c0,0,0.108,0,0.166-0.055c1.162-0.338,2.323-0.614,3.485-1c0.997-0.277,1.993-0.554,2.989-0.885c0.276-0.107,0.554-0.168,0.831-0.222c0,0,0,0,0.054,0c0.885,0.222,1.77,0.385,2.708,0.553c0,0,0,0,0.061,0c0.939,0.277,1.878,0.554,2.763,0.776c0.054,0,0.108,0,0.108,0c1.223,0.331,2.438,0.608,3.6,0.832c0.108,0.054,0.108,0.054,0.169,0.054c1.216,0.223,2.539,0.386,3.816,0.608c1.458,0.216,2.912,0.209,4.37,0.107l0.053-0.053c0,0,0.054,0,0.116,0c2.708-0.276,4.755-1.547,6.14-3.871c0.662-1.216,1.047-2.492,1.047-3.877v-0.054c0.06-2.216-0.771-4.093-2.432-5.586c-0.054-0.054-0.162-0.168-0.162-0.224c-1.331-1.161-2.884-1.992-4.539-2.545c-0.17-0.054-0.277-0.108-0.331-0.169c0.054-0.162,0.161-0.385,0.215-0.607c0.062-0.055,0.116-0.108,0.116-0.217c0-0.06,0-0.114,0.054-0.114c0.054-0.217,0.054-0.332,0.108-0.5c0.054-0.053,0.054-0.053,0.054-0.053c0.061-0.109,0.061-0.217,0.061-0.277c0-0.055,0.054-0.108,0.108-0.162l1.992-2.1c0.054-0.062,0.054-0.116,0.108-0.116l3.432-3.155c0.393-0.33,0.669-0.716,0.885-1.16v-0.055c0.061-0.054,0.114-0.108,0.114-0.17c0.108-0.161,0.108-0.276,0.217-0.384c0.83-2.101,0.614-4.147-0.662-6.14v-0.061c-0.108-0.054-0.108-0.163-0.224-0.271h-0.054c-0.108-0.222-0.277-0.391-0.385-0.554c-0.168-0.276-0.278-0.445-0.446-0.554c-0.162-0.168-0.276-0.334-0.439-0.5c-0.108-0.111-0.108-0.111-0.223-0.166c-0.054-0.111-0.107-0.165-0.162-0.223c-0.169-0.165-0.338-0.273-0.5-0.442l-1.332-1.05c-0.107-0.054-0.107-0.111-0.161-0.111c1.654-1.161,3.039-2.712,4.146-4.593c1.053-1.993,1.715-4.04,1.993-6.141c0.054-0.776,0.108-1.55,0.168-2.323v-0.058C77.736,30.026,75.358,24.714,70.489,21.174z M46.143,10.549c0.661-0.553,1.492-0.942,2.489-1.161c2.492-0.608,4.816,0.111,6.808,2.158c0.662,0.385,1.216,1.327,1.77,2.82c0.304,0.814,0.365,1.421,0.506,2.097c-1.634-0.189-3.363-0.297-5.211-0.324c-0.834-0.013-1.607,0.068-2.421,0.085c0.006-0.045,0.034-0.095,0.041-0.143c0-0.11,0-0.11,0-0.219c0.057-0.223,0.057-0.611,0.057-1.053c0.055-0.496-0.057-1.05-0.276-1.547c-0.166-0.499-0.331-0.888-0.443-1.053c-0.277-0.166-0.554-0.277-0.831-0.385h-0.497c-0.111,0.165-0.169,0.442-0.223,0.828c0.111,0.111,0.166,0.111,0.277,0.168c0.111,0.108,0.165,0.277,0.165,0.442c0.058,0.22,0,0.385-0.111,0.497c-0.165,0.111-0.442,0.165-0.885,0.165c-0.773,0.058-1.381-0.219-1.77-0.827l-0.331-0.888C45.2,11.658,45.534,11.104,46.143,10.549z M45.7,79.219c-1.161,0.331-2.27,0.608-3.377,0.885c-1.162,0.277-2.377,0.553-3.593,0.777c-1.054,0.216-2.162,0.27-3.266,0.216c-1.054-0.108-1.828-0.553-2.435-1.439c-0.277-0.438-0.389-0.884-0.443-1.438c0-0.831,0.277-1.493,0.885-2.101c0.773-0.777,1.716-1.385,2.766-1.824c1.107-0.392,2.215-0.884,3.374-1.275c0.723-0.332,1.55-0.608,2.327-0.885c0.054,0.114,0.112,0.222,0.166,0.392c0.054,0.161,0.054,0.385,0.166,0.607v-0.061c0.665,1.771,1.385,3.046,2.212,3.763c0.832,0.776,1.939,1.384,3.211,1.776C46.973,78.827,46.308,78.997,45.7,79.219z M51.786,78.057h-0.054c-0.334-0.115-0.719-0.168-1.053-0.222c-0.332-0.054-0.662-0.169-0.939-0.224c-0.389-0.053-0.666-0.162-0.996-0.276c-0.223-0.054-0.389-0.054-0.608-0.107h0.054c-1.108-0.332-1.935-0.778-2.655-1.439c-0.611-0.608-1.162-1.493-1.604-2.655c1.546-0.338,3.428-0.392,5.532-0.168h0.054c0.389,0,0.776,0.107,1.162,0.276c0.276,0.169,0.554,0.385,0.719,0.662v0.062c0.831,1.046,1.442,2.1,1.936,3.262c0.169,0.384,0.276,0.776,0.392,1.161C53.055,78.334,52.394,78.165,51.786,78.057z M69.989,75.842c0.669,0.554,0.939,1.216,0.939,2.047c0,0.5-0.163,1.053-0.385,1.438c-0.5,0.938-1.325,1.384-2.378,1.554c-1.107,0.054-2.215,0.054-3.323-0.115c-1.27-0.162-2.486-0.385-3.647-0.608c-1.162-0.223-2.324-0.445-3.431-0.776h-0.055c-0.945-0.217-1.884-0.439-2.878-0.771c-0.114-0.554-0.337-1.107-0.553-1.662c-0.5-1.276-1.224-2.438-2.05-3.6c-0.054-0.108-0.111-0.162-0.165-0.216c-0.223-0.276-0.5-0.5-0.774-0.669c-0.5-0.33-1.053-0.439-1.661-0.493c-2.378-0.222-4.428-0.168-6.086,0.164c-0.058-0.164-0.112-0.386-0.166-0.554c-0.277-0.439-0.554-0.885-0.942-1.216c-0.277-0.277-0.663-0.5-1.108-0.608c-0.054,0-0.166-0.107-0.219-0.107c-0.057,0-0.112,0-0.223,0c0,0-0.054,0-0.108,0c-1.053-0.284-1.772-0.892-2.215-1.831c-0.055-0.223-0.166-0.439-0.219-0.662c-0.334-0.939-0.885-1.77-1.662-2.493v-0.054c-0.054-0.054-0.111-0.108-0.22-0.169c0-0.054,0-0.054-0.058-0.054l-1.438-1.385c1.054-1.709,2.601-3.148,4.759-4.424c0.111-0.108,0.223-0.162,0.223-0.331c0-0.108,0-0.277-0.058-0.332c-0.108-0.168-0.166-0.223-0.277-0.223c-0.165-0.054-0.273-0.054-0.384,0c-2.213,1.332-3.928,2.878-5.036,4.648l-3.154-2.654c-0.054-0.054-0.111-0.108-0.111-0.108c-0.111-0.338-0.166-0.723-0.111-1.054l2.934,2.486c0.112,0.061,0.22,0.115,0.385,0.115c0.111-0.054,0.223-0.115,0.277-0.169c0.112-0.108,0.169-0.216,0.112-0.331c0-0.162,0-0.277-0.166-0.385l-3.043-2.601c0.054-0.054,0.054-0.168,0.166-0.222c0.165-0.223,0.277-0.385,0.442-0.608l3.154,2.77c0.112,0.108,0.223,0.163,0.389,0.108c0.108,0,0.276-0.054,0.33-0.108c0.112-0.115,0.112-0.223,0.112-0.338c0-0.162-0.055-0.276-0.112-0.384l-3.154-2.77l0.665-0.554c1.051,0.831,2.159,1.83,3.154,2.938c0.108,0.054,0.277,0.108,0.386,0.108c0.168,0.054,0.276,0,0.334-0.108c0.111-0.054,0.165-0.223,0.165-0.332c0-0.114-0.054-0.223-0.111-0.337c-0.942-1.047-1.993-1.985-3.043-2.817l0.608-0.338c1.273,0.777,2.381,1.662,3.32,2.662c0.112,0.108,0.166,0.163,0.334,0.163c0.108,0,0.277-0.054,0.386-0.109c0.111-0.168,0.111-0.276,0.111-0.392c0-0.162,0-0.215-0.111-0.33c-0.831-0.886-1.771-1.656-2.767-2.378c0,0,0.112,0,0.112,0.054c0.662,0.331,1.273,0.723,1.824,1.108c0.388,0.277,0.723,0.5,1.053,0.723c0.885,0.716,1.715,1.601,2.489,2.6c0.165,0.278,0.331,0.493,0.442,0.771c0.554,0.668,1.05,1.439,1.55,2.107c0.166,0.216,0.276,0.438,0.388,0.716c0.608,1.054,1.438,1.769,2.49,2.216h0.054c0.111,0.054,0.222,0.108,0.277,0.162c0.111,0.115,0.33,0.168,0.442,0.223c0.442,0.331,0.773,0.723,0.997,1.216c0.554,0.945,1.327,1.769,2.27,2.492c0.22,0.108,0.442,0.276,0.665,0.384c0.774,0.5,1.662,0.777,2.601,0.946v0.053c0.993,0.109,1.993,0.386,3.04,0.663c0.776,0.223,1.553,0.499,2.27,0.722c0.392,0.109,0.776,0.278,1.162,0.386c0.054,0,0.054,0,0.054,0c1.107,0.385,2.27,0.776,3.377,1.162h0.054c1.108,0.384,2.271,0.776,3.432,1.215C68.165,74.511,69.104,75.065,69.989,75.842z M71.32,57.361c0.107,0.331,0.054,0.716-0.116,1.108l0.062-0.054c-0.062,0.054-0.062,0.108-0.062,0.162l-3.039,2.715c-1.162-1.715-2.877-3.154-5.146-4.377c-0.108-0.108-0.17-0.108-0.331-0.108c-0.115,0.054-0.223,0.162-0.332,0.277c-0.053,0.108-0.053,0.276,0,0.385c0,0.168,0.109,0.222,0.217,0.277c2.107,1.215,3.77,2.6,4.87,4.262l-1.438,1.439v0.054c-0.054,0.054-0.108,0.168-0.217,0.223c-0.668,0.776-1.222,1.608-1.5,2.546c-0.107,0.223-0.162,0.5-0.277,0.716c-0.331,0.939-1.047,1.554-1.992,1.831c-0.054,0-0.054,0-0.107,0.054c0,0,0,0-0.109,0c0,0-0.053,0-0.169,0.054c-0.054,0-0.162,0.054-0.277,0.054h0.054c-0.439,0.116-0.716,0.332-1.047,0.669c-0.169,0.161-0.277,0.331-0.445,0.493c-0.885-0.276-1.77-0.608-2.709-0.885c-1.108-0.277-2.161-0.554-3.263-0.716c-0.445-0.114-0.946-0.277-1.442-0.446c0.888-0.715,1.55-1.546,2.05-2.431c0.331-0.778,0.884-1.332,1.601-1.662c1.053-0.5,1.884-1.27,2.438-2.378c0.055-0.115,0.163-0.277,0.217-0.392l1.162-2.208c0.168-0.224,0.276-0.392,0.391-0.608l0.108-0.115c0.17-0.162,0.331-0.385,0.5-0.553l0.332-0.331c0.054-0.055,0.108-0.055,0.169-0.163c0.054-0.061,0.162-0.115,0.162-0.168l2.324-2.377c0.445-0.393,0.946-0.778,1.385-1.162c0.053-0.062,0.168-0.062,0.223-0.062c0.108-0.054,0.33-0.161,0.499-0.161c-0.999,0.77-1.938,1.6-2.66,2.431c-0.108,0.115-0.163,0.224-0.163,0.392c0,0.108,0.055,0.216,0.163,0.331c0.114,0.054,0.222,0.108,0.337,0.108c0.162,0,0.27-0.054,0.385-0.108c0.885-1.054,1.938-1.938,3.154-2.823l0.608,0.332c-1,0.884-1.938,1.831-2.877,2.931c-0.054,0.115-0.107,0.169-0.107,0.338c0,0.108,0.054,0.217,0.215,0.331c0.062,0.054,0.169,0.108,0.277,0.108c0.17,0,0.278-0.054,0.392-0.108c0.994-1.162,1.932-2.161,2.986-3.101l0.662,0.555l-2.932,2.877c-0.108,0.054-0.162,0.223-0.162,0.332c0,0.169,0.054,0.277,0.162,0.331c0.054,0.115,0.223,0.168,0.332,0.168c0.168,0,0.223,0,0.331-0.168l2.992-2.878c0.162,0.223,0.331,0.385,0.5,0.554v0.054c0.108,0.054,0.108,0.114,0.216,0.223l-2.985,2.708c-0.054,0.061-0.169,0.169-0.169,0.338c0,0.108,0.061,0.276,0.169,0.331c0.054,0.108,0.223,0.163,0.332,0.223c0.168,0,0.222-0.06,0.33-0.168L71.32,57.361z M67.334,46.129c-2.377,1.827-3.93,2.878-4.7,3.208c-0.777,0.277-1.108,0.496-1.108,0.496c0.054,0.058,0,0.389-0.223,1.108c-0.223,0.611-0.5,1.162-0.885,1.662c-0.332,0.389-0.885,0.611-1.662,0.665c-0.77,0-1.27-0.334-1.439-1c-0.223-0.716-0.331-1.27-0.331-1.604c-0.223,0.057-0.332,0.057-0.385,0.057c0.054,0.166-0.061,0.831-0.223,1.936c-0.108,1.165-0.723,1.826-1.77,1.989c-1.107,0.169-1.716,0.169-1.993,0c-0.331-0.216-0.553-0.493-0.776-0.824c0-0.115-0.054-0.499-0.166-0.999c-0.111-0.497-0.111-1.051-0.166-1.604c-0.112,0-0.112,0-0.22,0c-0.057,0.058-0.057,0.388,0,0.885c0,0.5-0.057,1.11-0.276,1.718c-0.166,0.662-0.72,0.994-1.551,0.994c-1.497,0-2.489-0.554-2.935-1.602c-0.165-0.445-0.219-1.165-0.219-2.161c0-0.054,0-0.112,0-0.166c-0.111-0.058-0.278-0.058-0.443-0.058c0.055,0.169,0.111,0.447,0.055,0.996c-0.055,0.555-0.055,0.943-0.22,1.328c-0.111,0.331-0.554,0.554-1.384,0.554c-0.773-0.054-1.493-0.662-2.266-1.881c-0.446-0.719-0.666-1.272-0.777-1.711c-2.323-0.5-4.813-1.885-7.359-3.931c-2.601-2.158-4.151-5.755-4.539-10.567c-0.287-3.567,0.82-6.356,3.259-8.321c0.003-0.004,0.011-0.007,0.011-0.007c0.813-0.655,1.772-1.219,2.874-1.688c0.304-0.135,0.638-0.223,0.949-0.352c1.553-0.635,3.19-1.175,4.938-1.546c3.396-0.794,7.078-1.192,11.1-1.088c2.577,0.021,4.826,0.284,6.886,0.683c0.959,0.189,1.871,0.412,2.722,0.682c0.533,0.172,1.074,0.341,1.566,0.543c0.872,0.358,1.635,0.788,2.372,1.243c0.303,0.192,0.668,0.344,0.952,0.554c3.04,2.324,4.479,5.813,4.263,10.402C71.15,41.205,69.827,44.359,67.334,46.129z"/><path fill="#FFFFFF" d="M67.003,26.318c-2.162-1.61-5.073-2.641-8.605-3.198c-0.068-0.041-0.149-0.097-0.196-0.122v-0.054c-0.554-0.442-0.832-0.776-0.885-1.05v-0.112c0.5-2.104,0.723-3.432,0.723-3.985c-0.108-1.827-0.865-5.242-2.601-6.251c-2.385-2.445-6.491-3.343-9.297-0.997c-0.608,0.555-0.942,1.109-0.885,1.659l0.331,0.888c0.388,0.608,0.996,0.885,1.77,0.827c0.443,0,0.72-0.054,0.885-0.165c0.111-0.112,0.169-0.277,0.111-0.497c0-0.165-0.054-0.333-0.165-0.442c-0.111-0.057-0.166-0.057-0.277-0.168c0.053-0.386,0.111-0.663,0.223-0.828h0.497c0.277,0.108,0.554,0.219,0.831,0.385c0.112,0.166,0.277,0.554,0.443,1.053c0.22,0.497,0.331,1.051,0.276,1.547c0,0.442,0,0.83-0.057,1.053c0,0.109,0,0.109,0,0.219c-0.273,1.828-1.712,3.763-4.259,5.701c-0.79,0.335-1.567,0.703-2.323,1.104c-0.479,0.183-0.959,0.368-1.439,0.554c-0.111,0-0.166,0.058-0.223,0.112c-0.108,0-0.166,0-0.219,0.058c-0.02,0.009-0.028,0.03-0.047,0.043c-5.58,1.264-11.915,3.624-12.266,10.243c-0.402,7.578,4.323,14.583,11.925,16.218c0.321,1.263,1.486,3.485,3.043,3.593c0.831,0,1.273-0.223,1.384-0.554c0.227-0.767,0.28-1.54,0.166-2.324c0.165,0,0.332,0,0.443,0.058c0,0.73-0.044,1.615,0.219,2.327c0.581,1.365,3.972,2.662,4.485,0.608c0.22-0.608,0.276-1.219,0.276-1.718c-0.057-0.497-0.057-0.827,0-0.885c0.108,0,0.108,0,0.22,0c0.057,0.874,0.168,1.746,0.331,2.603c0.223,0.332,0.446,0.608,0.776,0.824c1.432,0.871,3.621-0.452,3.763-1.989c0.162-1.104,0.276-1.77,0.223-1.936c0.054,0,0.162,0,0.385-0.057c0,0.334,0.108,0.888,0.331,1.604c0.169,0.666,0.669,1,1.439,1c0.776-0.054,1.33-0.276,1.662-0.665c0.385-0.5,0.662-1.05,0.885-1.662c0.223-0.719,0.276-1.05,0.223-1.108c0,0,0.332-0.219,1.108-0.496c0.77-0.33,2.323-1.382,4.7-3.208C73.285,41.904,72.482,30.505,67.003,26.318 M46.639,44.636c-0.054,0.054-0.054,0.108-0.054,0.108c-3.603,3.603-11.772-0.27-11.067-5.478c0.054-0.608,0.276-1.273,0.666-1.881c1.776-3.553,7.406-5.407,10.291-2.046c0.054,0,0.111,0.054,0.111,0.111C48.658,37.878,48.666,42.201,46.639,44.636 M53.947,48.949c-1.331-0.885-2.992-0.885-4.874,0C47.611,44.475,55.439,44.369,53.947,48.949 M65.342,43.251c-1.439,1.604-3.155,2.49-5.093,2.82c-1.655,0.223-3.04-0.107-4.093-1.05c-0.055,0-0.055,0-0.109-0.112c-0.115-0.107-0.33-0.273-0.5-0.442c-2.1-2.621-2.034-6.842,0.169-9.406c0.107,0,0.107,0,0.107-0.054c2.371-2.371,6.525-1.972,8.963,0.054c0.054,0.111,0.169,0.166,0.223,0.277c1.331,1.216,2.047,2.489,2.215,3.708C67.334,40.263,66.726,41.702,65.342,43.251"/></svg>