<?xml version="1.0" encoding="utf-8"?><!DOCTYPE svg PUBLIC "-//W3C//DTD SVG 1.1//EN" "http://www.w3.org/Graphics/SVG/1.1/DTD/svg11.dtd"><svg version="1.1" id="skull" xmlns="http://www.w3.org/2000/svg" xmlns:xlink="http://www.w3.org/1999/xlink" x="0px" y="0px" width="323px" height="93px" viewBox="0 0 323 93" enable-background="new 0 0 323 93" xml:space="preserve"><path fill="#414143" d="M169.014,46.021c1.405,0.438,3.57,0.171,4.221-1.347c0.642-1.497,0.583-3.776-1.072-4.594c-1.578-0.78-3.521-0.047-4.583,1.247C166.259,42.939,167.005,45.355,169.014,46.021"/><path fill="#414143" d="M307.166,63.356c-0.385-0.324-0.89-0.444-1.495-0.404c-1.396,0.293-2.703,0.064-4.035-0.464c1.999-1.549,3.611-3.784,4.735-6.03c0.99-1.979,1.999-4.754,0.635-6.807c-1.255-1.89-4.156-2.415-6.244-2.011c-2.602,0.503-4.78,2.473-6.27,4.576c-2.07,3.185-2.544,7.04-0.263,10.312c-0.75,0.455-1.61,0.503-2.463,0.468c-0.38-0.046-0.775-0.061-1.16-0.115c0.963-0.983,1.082-3.15,0.855-4.411c-0.391-2.172-1.979-3.884-3.375-5.493c-0.587-0.677-1.187-1.344-1.827-1.97c-0.681-0.666-0.106-1.97-0.184-2.928c-0.244-1.796-1.92-2.75-3.618-2.835c-1.943-0.098-3.157,1.675-2.957,3.512c0.131,1.208,2.109,2.235,1.752,3.25c-0.491,1.395-0.998,2.784-1.5,4.174c-0.667,1.849-1.359,3.728-3.087,4.846c0.511-3.919-2.166-7.235-4.998-9.595c-0.213-0.084,0.034-2.618-0.196-3.19c-0.501-1.245-1.998-2.216-3.34-2.112c-1.378,0.107-2.505,1.177-2.819,2.497c-0.159,0.634-0.128,1.29,0.1,1.902c0.139,0.373,1.092,1.492,1.037,1.757c-0.541,2.629-1.213,5.161-2.6,7.484c-1.361,2.28-3.761,5.413-6.448,2.819c2.312-1.899,4.296-4.149,5.065-7.118c0.825-3.186,0.217-6.721-3.583-7.153c-3.334-0.379-7.061,1.533-8.967,4.234c-2.015,2.856-1.861,7.12-0.071,10.042c-1.361,0.67-4.523,1.218-5.297-0.646c-0.851-2.048,0.729-4.947,1.072-6.972c0.319-1.882,0.569-4.618-1.033-6.034c-1.765-1.56-4.743-0.435-6.449,0.628c2.473-4.608,5.027-10.305,3.388-15.603c-0.277-0.896-0.687-1.965-1.539-2.471c-1.089-0.645-2.738-0.414-3.854,0.026c-2.018,0.794-3.655,3.394-4.405,5.322c-0.896,2.304-1.027,4.882-0.982,7.326c0.029,1.586,0.173,3.167,0.309,4.747c0.077,0.905,0.159,1.81,0.242,2.715c0.079,0.862,0.342,1.892,0.109,2.729c-1.163,4.187-3.72,8.636-8.714,7.906c-2.795-0.292-4.674-2.926-4.417-5.787c0.129-1.429,0.769-3.033,1.986-3.88c0.693-0.482,3.323-1.019,2.961,0.551c-0.144,0.623-0.71,1.106-0.662,1.758c0.049,0.678,0.707,1.162,1.245,1.473c0.942,0.546,2.688,0.867,3.482-0.173c0.675-0.882,0.715-2.422,0.832-3.468c0.132-1.19-0.031-2.468-0.898-3.363c-1.851-1.91-5.552-2.11-7.91-1.266c-2.671,0.956-4.709,3.468-5.855,6c-0.628,1.388-0.914,2.906-0.888,4.427c0.014,0.817,0.139,1.633,0.409,2.407c0.128,0.364,0.288,0.718,0.48,1.053c-0.271,0.278-0.579,0.529-0.931,0.696c-0.816,0.388-2.329,0.332-2.676-0.66c-0.401-1.152-0.173-2.573-0.013-3.746c0.271-1.289,0.544-2.577,0.815-3.866c0.213-1.01,0.459-2.04,0.303-3.08c-0.216-1.435-1.705-1.726-2.969-1.756c-3.001-0.072-3.199,2.429-3.465,4.855c-0.257,2.344,0.121,5.193-1.538,7.14c-1.492,1.75-2.877-0.09-2.974-1.696c-0.16-2.67,0.695-5.286,1.077-7.902c0.193-1.329,0.688-2.748,0.4-4.095c-0.278-1.296-1.537-1.956-2.75-2.216c-3.168-0.681-3.37,3.331-3.592,5.414c-0.144,2.171-0.378,4.342-0.347,6.521c0.02,1.382,0.174,2.777,0.503,4.122c0.089,0.364,0.341,0.587-0.076,0.737c-0.388,0.138-0.781,0.263-1.182,0.359c-0.507,0.122-1.099,0.245-1.615,0.097c-1.594-0.458-1.23-3.603-1.179-4.896c0.096-2.422,0.412-4.847,0.675-7.255c0.3-2.75,0.573-5.514,1.107-8.231c0.391-1.984,1.734-4.082,0.05-5.816c-0.844-0.868-2.531-1.523-3.659-0.807c-0.966,0.613-1.132,1.954-1.325,2.986c-0.607,3.231-1.023,6.494-1.335,9.767c-5.74-1.945-11.27,3.893-11.969,9.164c-0.197,1.489-0.018,3.023,0.492,4.435c0.484,1.337-2.404,0.862-3.031,0.483c-1.061-0.642-1.059-2.086-0.921-3.167c0.232-1.664,0.51-3.323,0.867-4.965c0.249-1.056,0.729-2.235,0.603-3.332c-0.241-2.097-4.396-2.977-5.433-1.054c-0.472,0.876-0.378,2.082-0.433,3.038c-0.067,1.158-0.1,2.318-0.111,3.478c-0.007,0.721-0.007,1.443,0.001,2.165c0.006,0.614,0.232,1.544-0.114,2.06c-0.672,1.004-1.75,1.476-2.945,1.415c-1.804-0.227-1.515-2.471-1.253-3.727c0.464-2.23,1.213-4.35,1.164-6.662c-0.033-1.578-0.459-3.474-2.121-4.077c-2.047-0.743-4.44,0.425-6.045,1.637c1.449-2.941,2.725-6.092,3.113-9.373c0.27-2.279,0.16-5.67-1.601-7.389c-1.004-0.979-2.73-0.716-3.932-0.335c-1.232,0.403-2.149,1.58-2.862,2.597c-1.532,2.184-2.203,4.461-2.39,7.11c-0.186,2.626,0.029,5.256,0.267,7.872c0.123,1.345,0.251,2.689,0.379,4.033c0.152,1.608-1.061,3.153-2.064,4.375c-1.722,2.095-4.467,4.285-7.349,3.295c-3.285-1.129-4.033-5.026-2.495-7.816c0.5-0.909,3.091-3.895,4.246-2.288c0.993,1.381-2.11,3.729-0.444,4.594c0.85,0.406,1.908,0.634,2.764,0.12c1.731-0.803,2.428-3.435,2.286-5.19c-0.187-2.3-2.084-3.581-4.227-3.819c-4.86-0.541-9.183,3.249-10.421,7.818c-0.329,1.213-0.542,2.442-0.476,3.703c0.031,0.598,0.133,1.189,0.282,1.769c0.069,0.271,0.154,0.537,0.255,0.797c0.216,0.552-0.031,0.534-0.534,0.755c-1.69,0.738-4.184,0.485-4.07-1.763c0.117-2.293,1.775-4.377,1.069-6.701c-0.725-2.389-3.177-3.911-5.313-4.895c-0.892-0.379-1.032-0.291-1.168-1.282c-0.131-0.959-0.413-2.042-1.187-2.693c-0.764-0.643-2.112-1.068-3.092-0.767c-1.165,0.359-1.801,2.004-1.922,3.119c-0.122,1.118,0.357,2.129,1.154,2.895c0.372,0.351,1.081,0.64,1.06,1.159c-0.029,0.739-0.096,1.476-0.174,2.21c-0.243,2.278-0.383,5.5-1.877,7.358c-1.056,1.313-3.701,1.624-3.792-0.479c-0.102-2.353,0.669-4.855,1.292-7.102c0.662-1.572,1.953-4.217,0.145-5.541c-0.879-0.644-2.18-0.937-3.255-0.961c-1.179-0.027-1.521,0.818-1.611,1.883c-2.676-1.843-6.511-1.526-9.124,0.232c-2.965,1.996-5.102,5.404-5.385,8.982c-0.272,3.45,0.835,7.696,4.261,9.247c3.318,1.503,7.295-0.2,9.329-2.954c2.146,2.953,7.314,3.433,10.077,1.13c3.461-2.886,3.683-8.125,4.04-12.241c1.315,0.699,2.439,1.588,2.18,3.236c-0.253,1.61-1.238,3.012-1.625,4.58c-0.931,3.772,3.71,5.883,6.697,5.82c1.791-0.038,3.519-0.542,4.895-1.723c0.381-0.327,0.378-0.612,0.868-0.373c0.448,0.219,0.917,0.39,1.396,0.525c1.073,0.301,2.202,0.427,3.313,0.483c3.378,0.173,7.351-0.679,9.607-3.423c-0.379,1.583-1.012,3.889,0.251,5.247c1.158,1.245,4.074,1.671,4.484-0.468c0.277-1.679,0.532-3.363,0.804-5.043c0.292-1.8,0.721-3.624,1.333-5.342c0.396-1.112,0.92-2.421,1.913-3.143c0.839-0.609,2.416-0.885,2.071,0.584c-0.379,1.615-0.931,3.153-1.071,4.817c-0.137,1.623-0.327,3.504,0.478,4.993c0.786,1.455,2.43,2.234,4.016,2.427l0.181,0.04c1.923,0.064,4.138,0.1,5.59-1.386c0.969,1.427,2.537,2.186,4.234,2.303c0.991,0.069,2.01-0.028,2.959-0.324c0.451-0.14,0.886-0.327,1.295-0.56c0.5-0.285,0.682-0.739,1.155-0.316c3.177,2.646,7.808,2.25,9.938-1.427c0.952,1.354,2.893,2.022,4.484,2.058c0.915,0.021,1.811-0.153,2.688-0.399c0.624-0.176,1.984-1.04,2.426-0.661c2.384,2.048,7.246,0.911,8.854-1.648c0.108,1.964,2.332,2.678,3.965,2.77c2.121,0.12,4.537-0.313,5.684-2.314c2.077,1.28,4.47,1.967,6.899,2.104c2.884,0.144,5.441-1.106,7.567-2.974c-0.308,1.53-0.671,3.164,0.754,4.196c1.03,0.747,2.929,1.549,3.342-0.232c0.338-1.726,0.658-3.455,1.034-5.173c0.563-2.582,1.029-6.714,3.401-8.375c0.479-0.336,1.154-0.524,1.735-0.483c0.759,0.053,0.413,0.998,0.287,1.461c-0.463,1.439-0.865,2.891-1.014,4.399c-0.163,1.643-0.395,3.508,0.436,5.019c0.807,1.466,2.506,2.235,4.11,2.406c0.114,0.031,0.245,0.061,0.363,0.061c1.866,0.112,3.73-0.071,5.524-0.609c0.418-0.125,0.831-0.269,1.238-0.428c0.772-0.303,0.763-0.347,1.438,0.119c0.904,0.625,1.906,1.115,2.931,1.508c1.854,0.713,3.926,1.102,5.839,0.39c1.686-0.627,3.147-2.189,4.19-3.61c0.127-0.171,0.28-0.387,0.411-0.578c1.338-2.762,2.505-5.378,3.168-8.415c0.873,1.34,1.985,2.745,2.239,4.366c0.108,0.693,0.015,1.405-0.355,2.009c-0.249,0.404-1.759-0.121-2.361-0.004c-1.581,0.307-2.308,2.174-1.579,3.526c0.64,1.185,1.88,1.494,3.15,1.476c0.917-0.014,1.83-0.171,2.721-0.377c0.793-0.407,1.913-0.276,2.807-0.44c1.493-0.274,2.886-0.822,4.002-1.872c2.281-2.146,3.396-5.452,4.471-8.32c1.43,1.987,2.122,3.978,0.949,6.314c-1.032-0.354-2.914-0.152-3.373,1.044c-0.448,1.167,0.104,3.321,1.328,3.837c1.146,0.482,2.782,0.197,3.949-0.094c1.309-0.326,2.924,0.415,4.331,0.479c1.647-0.169,3.334-0.561,4.837-1.386c0.428-0.234,0.347-0.362,0.801-0.06c0.435,0.292,0.891,0.553,1.363,0.78c0.818,0.394,1.687,0.68,2.578,0.854c1.787,0.35,3.61,0.274,5.365-0.192c0.73-0.195,1.164-0.431,1.233-1.24C308.016,65.007,307.814,63.943,307.166,63.356 M106.516,53.046c-0.602,2.508-1.218,5.226-2.783,7.337c-0.664,0.896-1.729,2.062-2.883,2.246c-1.182,0.176-2.034-0.632-2.301-1.716c-0.56-2.275,0.308-5.541,1.767-7.338c0.652-0.803,1.534-1.371,2.544-1.604c0.729-0.168,1.502-0.18,2.24-0.066c0.403,0.063,0.799,0.167,1.18,0.312C106.834,52.429,106.626,52.548,106.516,53.046 M151.923,47.697c-0.105-2.075,0.145-3.978,0.509-6.014c0.188-1.058,0.323-2.376,1.072-3.218c0.237-0.267,0.916-0.677,1.235-0.301c0.51,0.599-0.087,2.123-0.264,2.734C153.803,43.221,152.862,45.472,151.923,47.697 M186.385,53.869c-0.192,2.156-0.309,4.485-1.021,6.55c-0.567,1.641-3.13,4.002-4.503,1.721c-1.197-1.99-0.281-4.449,0.584-6.372c0.927-2.063,2.735-3.233,5.005-3.148C186.425,53.036,186.403,53.452,186.385,53.869 M235.001,46.688c-0.078-2.205,0.195-4.271,0.634-6.427c0.198-0.975,0.37-2.278,1.202-2.953c0.262-0.212,0.937-0.487,1.181-0.105c0.444,0.694-0.153,2.124-0.363,2.796C236.942,42.287,235.973,44.5,235.001,46.688 M255.382,59.521l-0.75,0.554c-2.223-1.729-1.043-6.167,1.195-7.353c1.621-0.68,2.466,1.146,2.412,2.499C258.168,57,256.75,58.534,255.382,59.521 M298.648,60.188c-0.908-1.408-0.906-3.291-0.457-4.855c0.437-1.521,1.744-3.536,3.561-3.421c1.87,0.118,0.993,2.712,0.506,3.679C301.38,57.333,300.147,58.937,298.648,60.188"/><polygon fill="#FFFFFF" points="19.943,75.009 23.302,84.524 48.233,79.449 76.782,84.144 81.82,75.136 67.352,66.509 81.948,47.857 73.423,37.581 64.898,18.296 29.114,21.087 25.239,40.119 16.972,49.888 31.311,66.255 "/><path fill="#414143" d="M75.153,34.71c0.157-5.727-1.581-11.299-6.298-14.846c-5.688-4.277-12.352-5.142-19.324-5.069c-6.797,0.072-14.287,1.333-19.954,5.339c-4.584,3.24-6.457,8.381-5.979,13.872c0.14,1.723,0.431,3.837,0.904,5.677c-0.728,0.422-1.506,1.045-2.311,1.307c-0.862,0.718-1.978,1.41-2.664,2.312l-0.101,0.152c-0.056-0.008-0.106,0.009-0.151,0.05c-0.547,0.984-1.528,1.762-2.061,2.813v0.051c-1.919,2.45-1.445,6.682,0.905,8.743l5.227,4.322c0.828,0.81,1.658,1.614,2.478,2.431c1.397,1.388,1.655,3.386,2.798,4.958c-0.502,0.2-1.004,0.4-1.507,0.603c-4.474,1.144-8.619,5.756-8.442,10.451c0.054,1.64,0.623,3.25,1.507,4.624c1.225,2.47,4.466,4.091,7.336,4.271c3.597,0.231,7.571-0.548,11.206-1.457c1.712-0.361,3.401-0.9,5.076-1.408c1.274-0.089,4.484-2.118,6.281-1.506c2.744,0.546,5.407,1.222,8.141,1.809c1.196,0.494,3.438,0.875,5.025,1.157c4.267,0.821,9.119,1.918,13.407,0.677c3.826-1.106,6.593-4.767,6.593-8.77c0.014-2.691-1.07-5.13-3.117-6.886c-1.506-1.278-3.61-2.625-5.728-3.314c-0.9-0.296-1.815-0.589-2.712-0.906c0.648-0.943,1.066-1.943,1.557-2.964c0.276-0.689,0.351-1.507,0.904-2.058v-0.051c0.994-1.083,1.979-2.185,3.017-3.217c1.636-1.502,3.271-3.004,4.906-4.508c1.611-1.48,2.129-4.152,1.651-6.223c-0.29-1.254-0.925-2.393-1.697-3.408c-0.608-0.799-1.441-2.093-2.35-2.544c-0.828-0.667-1.981-1.289-2.713-2.01c-0.688-0.355-1.415-0.673-2.06-1.106C74.863,37.074,75.108,35.803,75.153,34.71 M77.064,45.714c0.2,0.25,0.45,0.553,0.703,0.804c-0.01,0.14,0.057,0.258,0.201,0.351c-0.968,0.91-1.936,1.817-2.904,2.727c-0.4,0.375-0.799,0.75-1.199,1.125c-0.706,0.663,0.316,1.648,0.936,1.025c1.307-1.224,2.614-2.448,3.921-3.67c0.101,0.509,0.04,1.028-0.154,1.508c0.1-0.104,0.084-0.054-0.049,0.151c-1.441,1.307-2.881,2.614-4.321,3.921c-0.934-1.432-2.129-2.678-3.455-3.75c-0.7-0.566-3.686-3.176-4.554-2.463c-1.211,0.994,2.422,2.592,3.046,3.06c1.528,1.146,2.903,2.51,3.958,4.108l-2.012,2.111h-0.051c-0.051,0.096-0.212,0.238-0.249,0.351c-0.547,0.685-1.128,1.364-1.558,2.158c-0.502,0.93-0.682,1.977-1.154,2.901c-0.853,1.663-2.137,1.698-3.569,2.429c-0.508,0.09-1.348,0.753-1.823,1.281c-0.498,0.553-0.692,0.23-1.377,0.001c-0.737-0.246-1.479-0.478-2.222-0.707c-2.346-0.724-4.852-0.954-7.143-1.831c1.018-0.85,1.909-1.857,2.555-3.019c0.584-1.049,1.085-1.961,2.168-2.58c2.185-1.249,3.253-2.505,4.412-4.728c1.17-2.242,2.423-4.487,4.121-6.379c1.29-1.436,3.751-4.25,5.889-4.25c-0.62,0.488-5.19,3.964-3.466,4.579c0.717,0.255,1.491-1.033,1.923-1.445c1.027-0.98,2.131-1.878,3.301-2.682c0.302,0.15,0.603,0.302,0.904,0.452c-0.823,0.683-5.1,4.059-4.018,5.127c0.804,0.794,4.532-3.779,5.276-4.423l0.956,0.753c-0.702,0.686-5.188,4.144-4.223,5.127C72.507,50.843,76.504,46.261,77.064,45.714 M76.813,74.207c1.441,1.278,1.771,3.377,0.754,5.023c-1.01,1.685-2.679,2.179-4.543,2.238c-4.682,0.148-9.728-1.085-14.229-2.29c-0.972-0.261-1.938-0.538-2.909-0.798c-0.956-0.258-0.968-1.676-1.385-2.566c-0.357-0.892-0.774-1.759-1.25-2.594c-0.407-0.713-1.162-2.405-1.916-2.782c-1.267-1.685-3.5-1.711-5.402-1.816c-2.222-0.122-4.475-0.046-6.657,0.409c-0.39-1.521-1.939-3.567-3.718-3.567c-1.266-0.022-2.5-1.097-3.101-2.146c-0.994-1.732-1.458-3.418-2.93-4.89c0.013-0.154-0.087-0.255-0.302-0.301c0.014-0.063-0.019-0.096-0.099-0.1c-0.399-0.401-1.948-1.486-2.01-2.012c1.274-2.14,3.135-3.88,5.186-5.266c0.599-0.405,2.299-0.963,1.798-1.968c-0.66-0.995-2.407,0.616-2.996,1.038c-2,1.435-3.791,3.193-5.094,5.292c-0.753-0.619-1.507-1.239-2.261-1.859c-0.729-0.599-1.939-1.258-2.362-2.11c-0.149-0.273-0.253-0.946-0.15-1.406c0.857,0.731,1.714,1.462,2.571,2.194c0.458,0.391,0.916,0.781,1.374,1.171c0.78,0.667,1.924-0.389,1.079-0.953c-0.729-0.612-1.457-1.223-2.185-1.835c-0.586-0.494-2.346-1.447-1.984-2.188c0.194-0.194,0.511-0.614,0.703-0.853c0.95,0.843,1.9,1.687,2.851,2.53c0.489,0.435,0.979,0.869,1.468,1.303c0.728,0.646,1.959-0.358,1.109-0.918l-4.42-3.92c0.904-0.805,0.816-0.897,1.831-0.032c1.264,1.078,2.47,2.224,3.644,3.398c0.276,0.279,0.704,0.256,1.005,0.051c0.441-0.653,0.025-0.935-0.409-1.402c-1.197-1.284-2.487-2.482-3.861-3.574c1.103-0.648,1.328-0.215,2.392,0.566c1.107,0.814,2.191,2.28,3.387,2.884c1.216,0.614,0.924-1.026,0.399-1.523c-1.119-1.059-2.282-2.076-3.565-2.931c0.246-0.004,0.48,0.045,0.703,0.149c3.764,1.302,6.657,4.968,8.809,8.321c1.022,1.592,1.823,3.571,3.239,4.852c1.492,1.348,3.494,1.572,4.535,3.46c0.636,1.426,1.924,2.649,3.166,3.57c2.868,1.636,5.824,2.041,8.996,2.911c1.357,0.537,3.252,1.134,4.823,1.56c1.494,0.662,3.288,1.064,4.875,1.658C70.895,71.199,74.235,72.061,76.813,74.207 M65.156,24.409c2.903,2.243,4.091,5.699,4.036,9.284c-0.053,3.474-0.712,7.397-3.787,9.509c-1.031,0.838-2.533,1.729-3.789,2.504c-0.556,0.343-2.644,1.096-2.644,1.919c-0.196,0.858-0.394,1.716-0.59,2.574c-0.101,0.438-0.201,0.877-0.302,1.315c-0.142,0.621-1.185,0.619-1.72,0.834c-0.043-0.99-0.085-1.979-0.127-2.969c-0.021-0.501-0.036-0.931-0.376-1.354c-0.783-0.474-1.908-0.168-1.908,0.906c0.033,0.877,0.066,1.756,0.099,2.634c0.017,0.433,0.033,0.866,0.049,1.299c0.009,0.233-2.94,0.387-3.265,0.387c0.026-1.02,0.053-2.041,0.079-3.061c0.011-0.403,0.078-0.879-0.048-1.272c-0.377-1.186-1.931-0.741-2.142,0.313c-0.05,1.34-0.101,2.681-0.15,4.02c-0.896-0.048-1.782-0.195-2.664-0.351c0.013-1.061,0.028-2.12,0.042-3.181c0.003-0.309,0.084-0.837-0.03-1.135c-0.413-1.078-2.123-0.825-2.123,0.347c-0.049,1.122-0.101,2.243-0.152,3.365c-0.464-0.155-0.926-0.314-1.355-0.552c-0.147-1.225-0.009-2.995-0.565-4.108c-0.472-0.945-2.653-1.124-3.561-1.545c-1.592-0.739-3.052-1.744-4.417-2.84C29.8,39.95,27.931,32.206,30.57,27.65c2.993-5.164,11.153-6.274,16.509-6.649C53.001,20.587,60.161,20.723,65.156,24.409 M49.376,70.588c2.194,1.373,3.67,4.891,4.321,7.287c-0.924-0.154-1.85-0.3-2.764-0.503c-2.021-0.179-4.315-0.754-6.201-1.512c-2.525-1.015-3.896-3.067-4.954-5.474c1.581-0.315,3.198-0.432,4.81-0.408C46.001,69.999,48.091,69.88,49.376,70.588 M33.647,70.287c1.114-0.456,2.245-0.869,3.367-1.307c0.122,0.483,0.294,0.935,0.453,1.405c1.585,3.727,3.511,6.488,7.687,7.839c-0.948,0.251-1.884,0.544-2.813,0.855c-2.875,0.696-5.707,1.519-8.619,2.077c-2.51,0.48-6.212,1.41-8.402-0.417c-2.186-1.819-1.908-4.645,0.06-6.44C27.664,72.213,30.81,71.348,33.647,70.287"/><path fill="#414143" d="M65.356,36.467c-0.102-1.104-0.855-2.31-2.111-3.516c-0.05-0.049-0.15-0.152-0.251-0.203c-1.205-1.055-2.662-1.607-4.371-1.607c-1.708,0-3.065,0.503-4.021,1.509c-0.05,0.048-0.101,0.048-0.151,0.098c-0.953,1.057-1.507,2.462-1.608,4.221c-0.15,1.811,0.353,3.369,1.458,4.623c0.15,0.201,0.301,0.353,0.452,0.504c0.051,0,0.101,0.049,0.101,0.098c1.005,0.856,2.361,1.157,3.919,0.956c1.86-0.302,3.467-1.205,4.776-2.662C64.903,38.98,65.506,37.673,65.356,36.467"/><path fill="#414143" d="M35.859,34.959c-0.301,0.555-0.503,1.209-0.552,1.762c-0.153,1.104,0.45,2.461,1.707,3.969c1.256,1.505,2.814,2.413,4.573,2.662c1.557,0.253,2.813-0.1,3.819-1.054c0.151-0.103,0.251-0.301,0.401-0.402c0-0.05,0-0.05,0.051-0.05c1.054-1.306,1.507-2.865,1.357-4.672c-0.102-1.711-0.555-3.067-1.408-4.122c-0.049-0.05-0.099-0.101-0.15-0.101c-0.954-1.054-2.262-1.558-4.021-1.558c-1.708,0-3.115,0.554-4.37,1.76C36.662,33.753,36.209,34.408,35.859,34.959"/><path fill="#414143" d="M52.19,43.202c-0.453-0.453-1.004-0.703-1.759-0.703c-0.653,0-1.255,0.25-1.709,0.703c-0.452,0.503-0.754,1.055-0.754,1.76c0,0.3,0.102,0.651,0.203,0.903c1.757-0.854,3.315-0.854,4.623,0c0.1-0.251,0.15-0.603,0.15-0.903C52.943,44.257,52.692,43.705,52.19,43.202"/></svg>