<?xml version="1.0" encoding="utf-8"?>
<!-- Generator: Ma bite et mon couteau 1.0  -->
<!DOCTYPE svg PUBLIC "-//W3C//DTD SVG 1.1//EN" "http://www.w3.org/Graphics/SVG/1.1/DTD/svg11.dtd">
<svg version="1.1" id="Calque_1" xmlns="http://www.w3.org/2000/svg" xmlns:xlink="http://www.w3.org/1999/xlink" x="0px" y="0px"
	 width="57px" height="57px" viewBox="0 0 57 57" enable-background="new 0 0 57 57" xml:space="preserve">
<g>
	<g>
		<path fill="#FFFFFF" d="M43.5,12.2l-8-3.2h-0.2c-1.6,1.7-3.8,2.8-6.3,2.8s-4.8-1.1-6.3-2.8h-0.2l-8,3.2l-7.8,7.6l8.3,6.7l2.5-2.3 v22.9H29h11.5V24.2l2.5,2.3l8.3-6.7L43.5,12.2z"/>
		<path fill="#737477" d="M40.5,47.9h-23c-0.4,0-0.8-0.3-0.8-0.8V25.9L15.5,27c-0.3,0.3-0.7,0.3-1,0l-8.3-6.7 c-0.2-0.1-0.3-0.3-0.3-0.5c0-0.2,0.1-0.4,0.2-0.6l7.8-7.6c0.1-0.1,0.2-0.1,0.2-0.2l8-3.2c0.1,0,0.2-0.1,0.3-0.1h0.2 c0.2,0,0.4,0.1,0.6,0.2c1.5,1.6,3.6,2.6,5.8,2.6c2.2,0,4.3-0.9,5.8-2.6c0.1-0.2,0.3-0.2,0.6-0.2h0.2c0.1,0,0.2,0,0.3,0.1l8,3.2 c0.1,0,0.2,0.1,0.2,0.2l7.8,7.6c0.2,0.1,0.2,0.4,0.2,0.6c0,0.2-0.1,0.4-0.3,0.5l-8.3,6.7c-0.3,0.2-0.7,0.2-1,0l-1.2-1.1v21.2 C41.2,47.6,40.9,47.9,40.5,47.9z M18.2,46.4h21.5V24.2c0-0.3,0.2-0.6,0.4-0.7c0.3-0.1,0.6-0.1,0.8,0.1l2,1.8l7.2-5.7l-7.1-6.9 l-7.5-3c-1.7,1.7-4.1,2.7-6.6,2.7s-4.8-1-6.6-2.7l-7.5,3l-7.1,6.9l7.2,5.7l2-1.8c0.2-0.2,0.5-0.3,0.8-0.1c0.3,0.1,0.4,0.4,0.4,0.7 V46.4z"/>
	</g>
	<g>
		<path fill="#737477" d="M29,13.6c-3,0-5.9-1.5-7.9-4c-0.1-0.1,0-0.2,0-0.2c0.1-0.1,0.2,0,0.2,0c2,2.5,4.8,3.9,7.7,3.9 c2.9,0,5.7-1.4,7.7-3.9c0.1-0.1,0.1-0.1,0.2,0c0.1,0.1,0.1,0.1,0,0.2C34.9,12.1,32,13.6,29,13.6z"/>
	</g>
	<g>
		<path fill="#737477" d="M41.7,25.4c0,0-0.1,0-0.1-0.1c-0.1-0.1,0-0.2,0-0.2l8.3-6.7c0.1-0.1,0.2,0,0.2,0s0,0.2,0,0.2L41.7,25.4 C41.8,25.4,41.8,25.4,41.7,25.4z"/>
	</g>
	<g>
		<path fill="#737477" d="M16.2,25.4C16.2,25.4,16.1,25.4,16.2,25.4l-8.4-6.7c-0.1-0.1-0.1-0.1,0-0.2s0.1-0.1,0.2,0l8.3,6.7 c0.1,0.1,0.1,0.1,0,0.2C16.3,25.4,16.2,25.4,16.2,25.4z"/>
	</g>
</g>
</svg>
